<svg width="31" height="46" viewBox="0 0 31 46" fill="none" xmlns="http://www.w3.org/2000/svg">
<path d="M22.75 30C26.7541 30 30 26.7541 30 22.75C30 18.7459 26.7541 15.5 22.75 15.5C18.7459 15.5 15.5 18.7459 15.5 22.75C15.5 26.7541 18.7459 30 22.75 30Z" stroke="white" stroke-width="2" stroke-linecap="round" stroke-linejoin="round"/>
<path d="M15.5 15.5V1H8.25C6.32718 1 4.48311 1.76384 3.12348 3.12348C1.76384 4.48311 1 6.32718 1 8.25C1 10.1728 1.76384 12.0169 3.12348 13.3765C4.48311 14.7362 6.32718 15.5 8.25 15.5H15.5Z" stroke="white" stroke-width="2" stroke-linecap="round" stroke-linejoin="round"/>
<path d="M15.5 30V15.5H8.25C6.32718 15.5 4.48311 16.2638 3.12348 17.6235C1.76384 18.9831 1 20.8272 1 22.75C1 24.6728 1.76384 26.5169 3.12348 27.8765C4.48311 29.2362 6.32718 30 8.25 30H15.5Z" stroke="white" stroke-width="2" stroke-linecap="round" stroke-linejoin="round"/>
<path d="M15.5 15.5V1H22.75C24.6728 1 26.5169 1.76384 27.8765 3.12348C29.2362 4.48311 30 6.32718 30 8.25C30 10.1728 29.2362 12.0169 27.8765 13.3765C26.5169 14.7362 24.6728 15.5 22.75 15.5H15.5Z" stroke="white" stroke-width="2" stroke-linecap="round" stroke-linejoin="round"/>
<path d="M15.5 30V37.25C15.5 38.6839 15.0748 40.0856 14.2782 41.2779C13.4815 42.4701 12.3492 43.3994 11.0245 43.9481C9.69969 44.4969 8.24196 44.6404 6.8356 44.3607C5.42924 44.0809 4.13741 43.3905 3.12348 42.3765C2.10955 41.3626 1.41905 40.0708 1.13931 38.6644C0.859567 37.258 1.00314 35.8003 1.55188 34.4755C2.10061 33.1508 3.02986 32.0185 4.22212 31.2218C5.41437 30.4252 6.81609 30 8.25 30H15.5Z" stroke="white" stroke-width="2" stroke-linecap="round" stroke-linejoin="round"/>
</svg>
