<svg width="46" height="46" viewBox="0 0 40 40" fill="none" xmlns="http://www.w3.org/2000/svg">
<path d="M1.98334 17.2975L13.0617 6.20001L16.3008 9.45834C15.8408 11.0875 16.5883 12.87 18.0833 13.7325V24.3508C16.9333 25.0025 16.1667 26.2483 16.1667 27.6667C16.1667 28.6833 16.5705 29.6584 17.2894 30.3773C18.0083 31.0961 18.9833 31.5 20 31.5C21.0167 31.5 21.9917 31.0961 22.7106 30.3773C23.4295 29.6584 23.8333 28.6833 23.8333 27.6667C23.8333 26.2483 23.0667 25.0025 21.9167 24.3508V15.0358L25.8842 19.0417C25.75 19.3292 25.75 19.655 25.75 20C25.75 21.0167 26.1539 21.9917 26.8728 22.7106C27.5917 23.4295 28.5667 23.8333 29.5833 23.8333C30.6 23.8333 31.575 23.4295 32.2939 22.7106C33.0128 21.9917 33.4167 21.0167 33.4167 20C33.4167 18.9833 33.0128 18.0083 32.2939 17.2894C31.575 16.5705 30.6 16.1667 29.5833 16.1667C29.2383 16.1667 28.9125 16.1667 28.625 16.3008L23.6992 11.375C24.1975 9.59251 23.2775 7.63751 21.495 6.89001C20.6708 6.58334 19.8083 6.50668 19.0417 6.71751L15.7833 3.47834L17.2975 1.98334C18.7925 0.469176 21.2075 0.469176 22.7025 1.98334L38.0167 17.2975C39.5308 18.7925 39.5308 21.2075 38.0167 22.7025L22.7025 38.0167C21.2075 39.5308 18.7925 39.5308 17.2975 38.0167L1.98334 22.7025C0.469176 21.2075 0.469176 18.7925 1.98334 17.2975Z" fill="white"/>
</svg>
