<svg width="46" height="46" viewBox="0 0 46 46" fill="none" xmlns="http://www.w3.org/2000/svg">
<path d="M0 0H46V46H0V0ZM12.0878 38.4356C13.11 40.6078 15.1289 42.3967 18.5789 42.3967C22.4122 42.3967 25.0444 40.3522 25.0444 35.88V21.1089H20.7V35.7778C20.7 37.9756 19.8056 38.5378 18.4 38.5378C16.9178 38.5378 16.3044 37.5156 15.6144 36.3144L12.0878 38.4356ZM27.37 37.9756C28.6478 40.48 31.2289 42.3967 35.2667 42.3967C39.3556 42.3967 42.4222 40.2756 42.4222 36.3656C42.4222 32.7622 40.3522 31.1522 36.6722 29.5678L35.5989 29.1078C33.7333 28.3156 32.9411 27.7789 32.9411 26.5011C32.9411 25.4533 33.7333 24.6356 35.0111 24.6356C36.2378 24.6356 37.0556 25.1722 37.7967 26.5011L41.1444 24.2778C39.7389 21.8244 37.7456 20.8789 35.0111 20.8789C31.1522 20.8789 28.6733 23.3322 28.6733 26.5778C28.6733 30.1044 30.7433 31.7656 33.8611 33.0944L34.9344 33.5544C36.9278 34.4233 38.1033 34.96 38.1033 36.4422C38.1033 37.6689 36.9533 38.5633 35.1644 38.5633C33.0433 38.5633 31.8167 37.4644 30.8967 35.9311L27.37 37.9756Z" fill="white"/>
</svg>
