<svg width="44" height="46" viewBox="0 0 19 21" fill="none" xmlns="http://www.w3.org/2000/svg">
<path d="M9.93481 0.0230103C9.66481 0.0230103 9.38481 0.0930102 9.15481 0.22301L1.71481 4.52301C1.23481 4.80301 0.934814 5.32301 0.934814 5.88301V14.463C0.934814 15.023 1.23481 15.543 1.71481 15.823L3.66481 16.943C4.61481 17.403 4.93481 17.413 5.37481 17.413C6.77481 17.413 7.58481 16.563 7.58481 15.083V6.61301C7.58481 6.49301 7.48481 6.39301 7.36481 6.39301H6.43481C6.30481 6.39301 6.20481 6.49301 6.20481 6.61301V15.083C6.20481 15.743 5.52481 16.393 4.43481 15.843L2.38481 14.673C2.31481 14.623 2.27481 14.543 2.27481 14.463V5.88301C2.27481 5.79301 2.31481 5.71301 2.38481 5.67301L9.82481 1.38301C9.88481 1.34301 9.98481 1.34301 10.0448 1.38301L17.4848 5.67301C17.5548 5.71301 17.5948 5.79301 17.5948 5.88301V14.463C17.5948 14.543 17.5548 14.623 17.4848 14.673L10.0448 18.963C9.98481 19.003 9.88481 19.003 9.81481 18.963L7.93481 17.823C7.85481 17.793 7.77481 17.783 7.72481 17.813C7.19481 18.113 7.09481 18.173 6.60481 18.323C6.48481 18.363 6.29481 18.433 6.67481 18.643L9.15481 20.113C9.39481 20.253 9.65481 20.323 9.93481 20.323C10.2148 20.323 10.4748 20.253 10.7148 20.113L18.1548 15.823C18.6348 15.543 18.9348 15.023 18.9348 14.463V5.88301C18.9348 5.32301 18.6348 4.80301 18.1548 4.52301L10.7148 0.22301C10.4848 0.0930102 10.2148 0.0230103 9.93481 0.0230103ZM11.9348 6.17301C9.81481 6.17301 8.54481 7.06301 8.54481 8.56301C8.54481 10.173 9.80481 10.643 11.8448 10.843C14.2748 11.083 14.4648 11.443 14.4648 11.923C14.4648 12.753 13.7948 13.103 12.2348 13.103C10.2548 13.103 9.83481 12.613 9.68481 11.633C9.66481 11.533 9.57481 11.453 9.46481 11.453H8.50481C8.38481 11.453 8.29481 11.543 8.29481 11.673C8.29481 12.913 8.97481 14.413 12.2348 14.413C14.5848 14.413 15.9348 13.483 15.9348 11.863C15.9348 10.253 14.8548 9.83301 12.5648 9.52301C10.2548 9.22301 10.0248 9.06301 10.0248 8.52301C10.0248 8.07301 10.2248 7.47301 11.9348 7.47301C13.4348 7.47301 14.0248 7.80301 14.2548 8.83301C14.2748 8.93301 14.3648 9.00301 14.4648 9.00301H15.4348C15.4848 9.00301 15.5448 8.98301 15.5848 8.93301C15.6248 8.89301 15.6548 8.83301 15.6348 8.77301C15.4948 6.99301 14.3148 6.17301 11.9348 6.17301Z" fill="white"/>
</svg>
