<svg width="46" height="42" viewBox="0 0 42 38" fill="none" xmlns="http://www.w3.org/2000/svg">
<path d="M20.7586 15.0025C22.7328 15.0025 24.3428 16.6125 24.3428 18.625C24.3428 20.5417 22.7328 22.1709 20.7586 22.1709C18.7844 22.1709 17.1744 20.5417 17.1744 18.625C17.1744 16.6125 18.7844 15.0025 20.7586 15.0025ZM11.8844 33.9584C13.0919 34.6867 15.7369 33.575 18.7844 30.7C17.7878 29.5692 16.8103 28.3425 15.8903 27.0584C14.3186 26.905 12.7661 26.675 11.2903 26.3684C10.3128 30.47 10.6769 33.2875 11.8844 33.9584ZM13.2453 22.9567L12.6894 21.9792C12.4786 22.535 12.2678 23.0909 12.1336 23.6275C12.6511 23.7425 13.2261 23.8384 13.8203 23.9342C13.6286 23.6084 13.4369 23.2825 13.2453 22.9567ZM25.7803 21.5L27.3328 18.625L25.7803 15.75C25.2053 14.7342 24.5919 13.8334 24.0361 12.9325C23.0011 12.875 21.9086 12.875 20.7586 12.875C19.6086 12.875 18.5161 12.875 17.4811 12.9325C16.9253 13.8334 16.3119 14.7342 15.7369 15.75L14.1844 18.625L15.7369 21.5C16.3119 22.5159 16.9253 23.4167 17.4811 24.3175C18.5161 24.375 19.6086 24.375 20.7586 24.375C21.9086 24.375 23.0011 24.375 24.0361 24.3175C24.5919 23.4167 25.2053 22.5159 25.7803 21.5ZM20.7586 8.62003C20.3944 9.0417 20.0111 9.48253 19.6278 10C20.0111 10 20.3753 10 20.7586 10C21.1419 10 21.5061 10 21.8894 10C21.5061 9.48253 21.1228 9.0417 20.7586 8.62003ZM20.7586 28.63C21.1228 28.2084 21.5061 27.7675 21.8894 27.25C21.5061 27.25 21.1419 27.25 20.7586 27.25C20.3753 27.25 20.0111 27.25 19.6278 27.25C20.0111 27.7675 20.3944 28.2084 20.7586 28.63ZM29.6136 3.2917C28.4253 2.56336 25.7803 3.67503 22.7328 6.55003C23.7294 7.68086 24.7069 8.90753 25.6269 10.1917C27.1986 10.345 28.7511 10.575 30.2269 10.8817C31.2044 6.78003 30.8403 3.96253 29.6136 3.2917ZM28.2719 14.2934L28.8277 15.2709C29.0386 14.715 29.2494 14.1592 29.3836 13.6225C28.8661 13.5075 28.2911 13.4117 27.6969 13.3159C27.8886 13.6417 28.0803 13.9675 28.2719 14.2934ZM31.0511 0.780863C33.8686 2.39086 34.1752 6.6267 32.9869 11.5717C37.8552 13.0092 41.3628 15.3859 41.3628 18.625C41.3628 21.8642 37.8552 24.2409 32.9869 25.6784C34.1752 30.6234 33.8686 34.8592 31.0511 36.4692C28.2528 38.0792 24.4386 36.2392 20.7586 32.7317C17.0786 36.2392 13.2644 38.0792 10.4469 36.4692C7.64859 34.8592 7.34192 30.6234 8.53025 25.6784C3.66192 24.2409 0.154419 21.8642 0.154419 18.625C0.154419 15.3859 3.66192 13.0092 8.53025 11.5717C7.34192 6.6267 7.64859 2.39086 10.4469 0.780863C13.2644 -0.829137 17.0786 1.01086 20.7586 4.51836C24.4386 1.01086 28.2528 -0.829137 31.0511 0.780863ZM30.4953 18.625C31.1469 20.0625 31.7219 21.5 32.2011 22.9567C36.2261 21.7492 38.4878 20.0242 38.4878 18.625C38.4878 17.2259 36.2261 15.5009 32.2011 14.2934C31.7219 15.75 31.1469 17.1875 30.4953 18.625ZM11.0219 18.625C10.3703 17.1875 9.79525 15.75 9.31609 14.2934C5.29109 15.5009 3.02942 17.2259 3.02942 18.625C3.02942 20.0242 5.29109 21.7492 9.31609 22.9567C9.79525 21.5 10.3703 20.0625 11.0219 18.625ZM28.2719 22.9567C28.0803 23.2825 27.8886 23.6084 27.6969 23.9342C28.2911 23.8384 28.8661 23.7425 29.3836 23.6275C29.2494 23.0909 29.0386 22.535 28.8277 21.9792L28.2719 22.9567ZM22.7328 30.7C25.7803 33.575 28.4253 34.6867 29.6136 33.9584C30.8403 33.2875 31.2044 30.47 30.2269 26.3684C28.7511 26.675 27.1986 26.905 25.6269 27.0584C24.7069 28.3425 23.7294 29.5692 22.7328 30.7ZM13.2453 14.2934C13.4369 13.9675 13.6286 13.6417 13.8203 13.3159C13.2261 13.4117 12.6511 13.5075 12.1336 13.6225C12.2678 14.1592 12.4786 14.715 12.6894 15.2709L13.2453 14.2934ZM18.7844 6.55003C15.7369 3.67503 13.0919 2.56336 11.8844 3.2917C10.6769 3.96253 10.3128 6.78003 11.2903 10.8817C12.7661 10.575 14.3186 10.345 15.8903 10.1917C16.8103 8.90753 17.7878 7.68086 18.7844 6.55003Z" fill="white"/>
</svg>
