<svg width="46" height="46" viewBox="0 0 500 491" fill="none" xmlns="http://www.w3.org/2000/svg">
<path d="M394.327 388.836C411.998 381.362 433.066 378.642 460.251 379.32C459.486 374.233 449.772 368.192 442.655 363.766C440.266 362.28 438.17 360.977 436.803 359.952C425.929 352.137 414.375 343.979 402.823 336.846C399.101 334.572 393.743 332.675 388.586 330.849C385.269 329.674 382.036 328.529 379.375 327.332C376.657 326.224 372.954 325.116 368.957 323.92C359.462 321.079 348.303 317.74 344.715 312.721C335.475 300.708 329.027 286.183 322.588 271.678C321.923 270.179 321.257 268.681 320.589 267.186C317.219 259.481 313.469 251.625 309.698 243.724C305.487 234.899 301.249 226.02 297.483 217.234C295.842 213.656 294.594 210.273 293.366 206.942C291.796 202.684 290.257 198.512 287.969 194.128C263.161 146.216 226.465 106.117 181.949 77.914C167.336 68.7388 151.028 60.2415 133.016 54.4665C127.516 52.8172 121.423 52.5517 115.27 52.2836C110.018 52.0547 104.723 51.824 99.7158 50.7295H92.5786C88.4586 49.585 84.8009 46.2812 81.3985 43.2079C79.7501 41.719 78.1617 40.2843 76.6095 39.1753C66.0743 32.0403 55.5412 27.2799 42.9679 22.185C38.551 20.1471 25.9778 15.3889 21.5607 19.1281C18.8406 19.8081 17.4826 20.8271 16.8026 23.5451C14.0846 27.6232 16.4658 33.7393 18.1627 37.4763C21.5308 44.6619 25.7898 49.9188 30.154 55.3057C32.3944 58.071 34.6625 60.8705 36.852 63.9828C37.8978 65.4589 38.9881 66.9684 40.0968 68.5032C45.1122 75.4469 50.5024 82.9095 53.8423 90.1461C58.5552 100.299 61.9144 111.031 65.2614 121.724C68.1882 131.075 71.1057 140.396 74.9106 149.273C77.9676 156.41 82.7257 164.564 87.1427 171.021C88.5281 172.911 90.3341 174.614 92.1623 176.337C95.2659 179.263 98.4335 182.249 99.716 186.313C103.021 191.82 96.9535 207.59 93.2673 217.172C92.4045 219.415 91.6721 221.319 91.2208 222.672C82.3846 250.535 84.0836 289.273 94.2778 313.399C94.6421 314.249 95.0038 315.112 95.368 315.982C99.081 324.85 103.066 334.369 112.967 336.846C113.275 336.538 113.305 336.439 113.371 336.392C113.451 336.335 113.584 336.353 114.327 336.166C114.824 332.26 115.248 328.384 115.665 324.562C117.244 310.098 118.737 296.414 123.841 284.856C126.273 278.888 130.286 274.07 134.196 269.375C136.298 266.851 138.37 264.363 140.152 261.75C142.308 263.043 143.096 265.978 143.905 268.993C144.371 270.729 144.844 272.491 145.59 273.982C145.911 274.747 146.233 275.517 146.558 276.292C150.701 286.188 155.16 296.834 160.201 306.603C171.414 328.351 183.989 349.417 198.259 368.447C203.015 375.243 209.814 382.72 215.93 388.836C216.86 389.65 217.83 390.344 218.785 391.028C220.621 392.343 222.403 393.62 223.745 395.632H224.425V396.653C217.974 394.287 213.02 389.199 208.184 384.232C205.379 381.35 202.613 378.509 199.617 376.265C184.326 364.71 165.978 347.379 155.443 330.73C152.125 323.583 148.615 316.627 145.057 309.575C143.879 307.24 142.695 304.894 141.512 302.526C141.512 302.526 141.513 302.185 141.512 301.846C140.213 303.578 140.018 305.309 139.783 307.393C139.65 308.579 139.503 309.88 139.133 311.361C137.873 316.205 137.249 321.243 136.646 326.113C135.134 338.319 133.753 349.464 122.822 353.836C105.493 360.973 92.5788 342.28 87.1428 333.787C69.8136 305.584 65.0554 258.011 77.2875 219.613C78.2339 216.658 78.8923 213.497 79.5488 210.345C80.7794 204.436 82.0034 198.56 85.1048 194.128C84.423 190.044 82.0761 187.929 79.7826 185.861C78.6412 184.832 77.5129 183.815 76.6097 182.574C71.8515 176.119 67.7756 168.642 64.0365 161.507C58.6033 150.901 54.3537 138.718 50.2352 126.911C48.9434 123.208 47.6646 119.542 46.3662 115.973C45.2062 112.991 44.4507 110.008 43.7052 107.065C42.9217 103.971 42.1493 100.922 40.9301 97.9634C37.7179 91.0032 32.3988 84.0445 27.4605 77.584C26.1293 75.8425 24.8258 74.1372 23.5988 72.4779C22.275 70.5782 20.5223 68.3763 18.5684 65.9219C8.98731 53.8859 -5.42947 35.7752 2.19156 17.4291C16.4638 -17.5705 66.4178 8.93183 85.7828 21.1661C87.7193 22.4111 89.7684 24.2187 91.8842 26.085C94.9671 28.8043 98.1915 31.6485 101.415 33.0593C105.664 33.2299 109.913 33.4847 114.161 33.7395C118.408 33.9942 122.655 34.2488 126.901 34.4194C128.292 34.7449 129.675 35.0652 131.05 35.3836C145.458 38.7202 158.917 41.8369 170.395 48.3505C228.842 82.6721 266.901 117.672 301.9 175.439C306.652 183.213 309.894 191.399 313.195 199.737C315.089 204.517 317.001 209.347 319.229 214.177C327.724 233.885 337.243 254.611 347.094 273.302C348.332 275.78 349.491 278.337 350.652 280.9C353.63 287.477 356.624 294.088 361.027 299.467C362.609 301.729 366.15 302.936 369.543 304.092C371.248 304.673 372.915 305.242 374.278 305.925C378.673 308.188 383.434 310.243 388.232 312.315C395.677 315.529 403.213 318.783 409.619 322.915C429.327 335.147 448.357 349.756 465.687 364.711C469.19 367.845 472.093 371.679 474.993 375.507C477.438 378.736 479.88 381.961 482.677 384.76V387.817C477.241 389.516 471.803 391.215 466.367 392.575C460.452 394.095 454.873 394.691 449.338 395.283C443.744 395.88 438.194 396.473 432.386 398.011C431.654 398.22 430.904 398.437 430.139 398.657C423.451 400.587 415.648 402.839 408.939 403.449C409.278 403.788 409.619 404.127 409.619 404.127C412.894 413.45 426.821 421.465 438.234 428.034C442.213 430.324 445.886 432.438 448.696 434.371C461.95 443.885 474.182 455.439 484.037 468.69C485.731 470.384 487.426 471.994 489.12 473.603C490.824 475.222 492.528 476.841 494.231 478.545C495.382 480.19 496.135 482.074 496.876 483.928C497.665 485.902 498.44 487.841 499.667 489.419V490.438C496.694 489.377 494.651 487.253 492.624 485.147C491.407 483.882 490.196 482.623 488.793 481.604C485.592 479.422 482.393 477.053 479.193 474.683C474.918 471.517 470.643 468.352 466.367 465.633C459.792 461.48 452.688 458.208 445.548 454.92C438.667 451.752 431.753 448.568 425.249 444.565C417.775 439.807 410.638 434.371 403.503 428.935C397.045 424.176 389.913 414.999 385.832 408.205C384.804 406.59 384.157 404.848 383.534 403.17C382.715 400.967 381.939 398.875 380.394 397.331C380.903 392.504 385.592 391.285 390.057 390.125C391.562 389.734 393.042 389.35 394.327 388.836Z" fill="white"/>
<path d="M99.7144 85.729C103.792 84.71 107.868 84.0278 113.646 84.0278C114.722 85.1056 116.066 86.0228 117.424 86.9489C119.492 88.3601 121.59 89.7921 122.821 91.8451C123.576 92.9021 124.062 93.959 124.548 95.016C125.157 96.3381 125.765 97.6602 126.899 98.9823C126.899 107.136 124.522 112.572 119.762 115.973C119.762 115.973 119.423 116.311 119.084 116.653C117.726 113.937 116.453 111.222 115.181 108.508C113.905 105.785 112.629 103.062 111.266 100.34C109.943 98.4882 108.414 96.7904 106.88 95.0866C104.474 92.4149 102.055 89.7283 100.394 86.4091H99.7144V85.729Z" fill="white"/>
</svg>
