<svg width="46" height="46" viewBox="0 0 18 19" fill="none" xmlns="http://www.w3.org/2000/svg">
<path d="M0 0.5H18V18.5H0V0.5ZM10.71 15.36C11.21 16.34 12.22 17.09 13.8 17.09C15.4 17.09 16.6 16.26 16.6 14.73C16.6 13.32 15.79 12.69 14.35 12.07L13.93 11.89C13.2 11.58 12.89 11.37 12.89 10.87C12.89 10.46 13.2 10.14 13.7 10.14C14.18 10.14 14.5 10.35 14.79 10.87L16.1 10C15.55 9.04 14.77 8.67 13.7 8.67C12.19 8.67 11.22 9.63 11.22 10.9C11.22 12.28 12.03 12.93 13.25 13.45L13.67 13.63C14.45 13.97 14.91 14.18 14.91 14.76C14.91 15.24 14.46 15.59 13.76 15.59C12.93 15.59 12.45 15.16 12.09 14.56L10.71 15.36ZM10 8.75H5V10.25H6.5V17.5H8.25V10.25H10V8.75Z" fill="white"/>
</svg>
