<svg width="30" height="30" viewBox="0 0 21 21" fill="none" xmlns="http://www.w3.org/2000/svg">
<path d="M10.8771 0.183472C5.41708 0.183472 0.967085 4.63347 0.967085 10.0935C0.967085 11.8435 1.42709 13.5435 2.28709 15.0435L0.887085 20.1835L6.13708 18.8035C7.58709 19.5935 9.21708 20.0135 10.8771 20.0135C16.3371 20.0135 20.7871 15.5635 20.7871 10.1035C20.7871 7.45347 19.7571 4.96347 17.8871 3.09347C16.0171 1.21347 13.5271 0.183472 10.8771 0.183472ZM10.8871 1.85347C13.0871 1.85347 15.1471 2.71347 16.7071 4.27347C18.2571 5.83347 19.1171 7.90347 19.1171 10.1035C19.1171 14.6435 15.4171 18.3335 10.8771 18.3335C9.39708 18.3335 7.94709 17.9435 6.68709 17.1835L6.38708 17.0135L3.26708 17.8335L4.09709 14.7935L3.89708 14.4735C3.07708 13.1835 2.63708 11.6535 2.63708 10.0935C2.64708 5.55347 6.33708 1.85347 10.8871 1.85347ZM7.36708 5.51347C7.20708 5.51347 6.93708 5.57347 6.70708 5.82347C6.48708 6.07347 5.83708 6.68347 5.83708 7.89347C5.83708 9.11347 6.72708 10.2835 6.83708 10.4535C6.97708 10.6235 8.59708 13.1235 11.0871 14.1835C11.6771 14.4535 12.1371 14.6035 12.4971 14.7135C13.0871 14.9035 13.6271 14.8735 14.0571 14.8135C14.5371 14.7435 15.5171 14.2135 15.7271 13.6335C15.9371 13.0535 15.9371 12.5635 15.8771 12.4535C15.8071 12.3535 15.6471 12.2935 15.3971 12.1835C15.1471 12.0435 13.9271 11.4435 13.7071 11.3635C13.4771 11.2835 13.3371 11.2435 13.1471 11.4835C12.9871 11.7335 12.5071 12.2935 12.3671 12.4535C12.2171 12.6235 12.0771 12.6435 11.8371 12.5235C11.5771 12.3935 10.7771 12.1335 9.83708 11.2935C9.09708 10.6335 8.60708 9.82347 8.45708 9.57347C8.33708 9.33347 8.44708 9.18347 8.56708 9.07347C8.67708 8.96347 8.83709 8.78347 8.93709 8.63347C9.06709 8.49347 9.10709 8.38347 9.18709 8.22347C9.26709 8.05347 9.22708 7.91347 9.16708 7.79347C9.10708 7.68347 8.60709 6.44347 8.39709 5.95347C8.19709 5.47347 7.99708 5.53347 7.83708 5.52347C7.69708 5.52347 7.53708 5.51347 7.36708 5.51347Z" fill="white"/>
</svg>
